<svg width="50" height="50" viewBox="0 0 50 50" fill="none" xmlns="http://www.w3.org/2000/svg">
<path d="M48.0349 49H1.9651C1.4343 49 1 48.5657 1 48.0349V1.9651C1 1.4343 1.4343 1 1.9651 1H48.0349C48.5657 1 49 1.4343 49 1.9651V48.0349C49 48.5657 48.5657 49 48.0349 49Z" fill="#D22F27"/>
<path d="M48.0349 49H1.9651C1.4343 49 1 48.5657 1 48.0349V1.9651C1 1.4343 1.4343 1 1.9651 1H48.0349C48.5657 1 49 1.4343 49 1.9651V48.0349C49 48.5657 48.5657 49 48.0349 49Z" stroke="black" stroke-width="2" stroke-miterlimit="10"/>
<path d="M25 31.01C22.63 31.01 20.709 29.089 20.709 26.719V23.286C20.709 20.916 22.63 18.995 25 18.995C27.37 18.995 29.291 20.916 29.291 23.286V26.719C29.291 29.089 27.37 31.01 25 31.01V31.01Z" stroke="black" stroke-width="3.004" stroke-miterlimit="10" stroke-linecap="round" stroke-linejoin="round"/>
<path d="M15.21 21.39C14.8584 20.023 13.339 18.994 11.518 18.994C9.43602 18.994 7.74902 20.338 7.74902 21.995C7.74902 23.652 9.43602 24.996 11.518 24.996L11.4414 25.0071C13.5234 25.0071 15.2104 26.3511 15.2104 28.0081C15.2104 29.6651 13.5234 31.0091 11.4414 31.0091C9.62042 31.0091 8.10042 29.9801 7.74942 28.6131" stroke="black" stroke-width="3.004" stroke-miterlimit="10" stroke-linecap="round" stroke-linejoin="round"/>
<path d="M42.2501 21.39C41.8985 20.023 40.3791 18.994 38.5581 18.994C36.4761 18.994 34.7891 20.338 34.7891 21.995C34.7891 23.652 36.4761 24.996 38.5581 24.996L38.4815 25.0071C40.5635 25.0071 42.2505 26.3511 42.2505 28.0081C42.2505 29.6651 40.5635 31.0091 38.4815 31.0091C36.6605 31.0091 35.1405 29.9801 34.7895 28.6131" stroke="black" stroke-width="3.004" stroke-miterlimit="10" stroke-linecap="round" stroke-linejoin="round"/>
</svg>
